<?xml version="1.0" encoding="UTF-8"?>
<svg xmlns="http://www.w3.org/2000/svg" viewBox="0 0 200 240" role="img" aria-label="mage-saint">
<defs><linearGradient id="bg" x1="0" y1="0" x2="0" y2="1"><stop offset="0%" stop-color="#5b3db8"/><stop offset="100%" stop-color="#2a1860"/></linearGradient></defs><rect width="200" height="240" rx="18" fill="url(#bg)"/><path d="M42 120 Q20 90 34 70 Q48 95 58 115 Z" fill="#fff" opacity=".55"/><path d="M158 120 Q180 90 166 70 Q152 95 142 115 Z" fill="#fff" opacity=".55"/><circle cx="100" cy="130" r="38" fill="#f3eefe" opacity=".12"/><ellipse cx="100" cy="102" rx="52" ry="22" fill="#fff" opacity=".2"/><ellipse cx="100" cy="205" rx="42" ry="8" fill="#000" opacity=".22"/><rect x="78" y="118" width="44" height="52" rx="12" fill="#4a3db8"/><path d="M70 115 L130 115 L128 170 L72 170 Z" fill="#4a3db8" stroke="#b47aff" stroke-width="1.5"/><circle cx="100" cy="88" r="26" fill="#ffd8b8"/><ellipse cx="100" cy="72" rx="28" ry="22" fill="#3a2060"/><circle cx="90" cy="86" r="3" fill="#3a2a20"/><circle cx="110" cy="86" r="3" fill="#3a2a20"/><path d="M94 98 Q100 103 106 98" fill="none" stroke="#c87858" stroke-width="2" stroke-linecap="round"/><polygon points="100,42 77.0,78 123.0,78" fill="#4a3db8" stroke="#b47aff" stroke-width="1.5"/><circle cx="100" cy="40" r="6" fill="#b47aff"/><circle cx="154" cy="78" r="23" fill="#f3eefe" opacity=".35"/><circle cx="154" cy="78" r="31" fill="#b47aff" opacity=".18"/><rect x="151" y="82" width="6" height="86" rx="3" fill="#d4c4ff"/><circle cx="154" cy="78" r="15" fill="#b47aff" stroke="#fff" stroke-width="1.5"/>
</svg>
